<?xml version="1.0" encoding="UTF-8"?><svg id="Layer_2" xmlns="http://www.w3.org/2000/svg" viewBox="0 0 765.66 118.31"><defs><style>.cls-1{fill:#fff;}</style></defs><g id="Layer_1-2"><g><path class="cls-1" d="M278.68,41.55c-2.19-1.13-4.98-2.28-8.35-3.44-2.27-.81-3.98-1.47-5.14-2-1.16-.53-2.13-1.16-2.91-1.89-.78-.73-1.17-1.6-1.17-2.61,0-1.21,.35-2.14,1.06-2.8,.71-.65,1.61-.98,2.72-.98,1.46,0,2.66,.4,3.59,1.21,.93,.81,1.42,2.02,1.47,3.63h16.1c-.25-5.24-2.23-9.31-5.93-12.21s-8.65-4.35-14.85-4.35c-3.83,0-7.26,.63-10.28,1.89-3.02,1.26-5.39,3.11-7.11,5.56-1.71,2.44-2.57,5.38-2.57,8.81s.79,6.11,2.38,8.2c1.59,2.09,3.45,3.68,5.59,4.76,2.14,1.08,4.95,2.2,8.43,3.36,3.27,1.06,5.64,2.02,7.1,2.87,1.46,.86,2.19,2.07,2.19,3.63,0,1.21-.44,2.15-1.32,2.83-.88,.68-2,1.02-3.36,1.02-1.51,0-2.75-.43-3.7-1.28-.96-.86-1.51-2.22-1.66-4.08h-15.8c.3,5.49,2.44,9.71,6.43,12.66,3.98,2.95,9.07,4.42,15.27,4.42,4.08,0,7.62-.73,10.62-2.19,3-1.46,5.29-3.45,6.88-5.97,1.59-2.52,2.38-5.37,2.38-8.54s-.79-5.71-2.38-7.75-3.48-3.63-5.67-4.76Z"/><path class="cls-1" d="M321.5,27.46c-2.92,0-5.51,.59-7.75,1.78-2.24,1.19-4.02,2.73-5.33,4.65V14.3h-14.82v55.94h14.82v-22.75c0-2.42,.63-4.32,1.89-5.71,1.26-1.39,3-2.08,5.22-2.08s3.8,.69,5.06,2.08c1.26,1.39,1.89,3.29,1.89,5.71v22.75h14.82v-24.72c0-5.54-1.42-9.94-4.27-13.19-2.85-3.25-6.69-4.88-11.53-4.88Z"/><path class="cls-1" d="M376.64,29.95c-3.35-1.76-7.14-2.65-11.38-2.65s-8.02,.88-11.38,2.65-6,4.28-7.94,7.56c-1.94,3.28-2.91,7.1-2.91,11.49s.96,8.29,2.87,11.57c1.91,3.28,4.55,5.8,7.9,7.56,3.35,1.76,7.14,2.65,11.38,2.65s8.04-.88,11.41-2.65c3.38-1.76,6.03-4.3,7.97-7.6,1.94-3.3,2.91-7.14,2.91-11.53s-.97-8.21-2.91-11.49c-1.94-3.27-4.59-5.79-7.94-7.56Zm-6.27,25.66c-1.39,1.54-3.11,2.31-5.18,2.31s-3.75-.76-5.06-2.27c-1.31-1.51-1.97-3.73-1.97-6.65s.68-5.06,2.04-6.58c1.36-1.51,3.05-2.27,5.06-2.27s3.72,.76,5.1,2.27c1.39,1.51,2.08,3.7,2.08,6.58s-.69,5.08-2.08,6.61Z"/><path class="cls-1" d="M429.93,29.95c-2.75-1.76-5.81-2.65-9.18-2.65-2.87,0-5.37,.58-7.48,1.74-2.12,1.16-3.75,2.72-4.91,4.69v-5.9h-14.82v62.66h14.82v-26.15c1.21,1.97,2.86,3.53,4.95,4.69,2.09,1.16,4.57,1.74,7.45,1.74,3.38,0,6.44-.88,9.18-2.65,2.75-1.76,4.91-4.3,6.5-7.6,1.59-3.3,2.38-7.14,2.38-11.53s-.79-8.21-2.38-11.49c-1.59-3.27-3.76-5.79-6.5-7.56Zm-8.39,25.51c-1.49,1.59-3.31,2.38-5.48,2.38s-3.99-.78-5.48-2.34c-1.49-1.56-2.23-3.73-2.23-6.5s.74-4.86,2.23-6.43c1.49-1.56,3.31-2.34,5.48-2.34s3.99,.77,5.48,2.31c1.49,1.54,2.23,3.69,2.23,6.46s-.74,4.88-2.23,6.46Z"/><path class="cls-1" d="M481.33,29.95c-2.75-1.76-5.81-2.65-9.18-2.65-2.87,0-5.37,.58-7.48,1.74-2.12,1.16-3.75,2.72-4.91,4.69v-5.9h-14.82v62.66h14.82v-26.15c1.21,1.97,2.86,3.53,4.95,4.69,2.09,1.16,4.57,1.74,7.45,1.74,3.38,0,6.44-.88,9.18-2.65,2.75-1.76,4.91-4.3,6.5-7.6,1.59-3.3,2.38-7.14,2.38-11.53s-.79-8.21-2.38-11.49c-1.59-3.27-3.75-5.79-6.5-7.56Zm-8.39,25.51c-1.49,1.59-3.31,2.38-5.48,2.38s-3.99-.78-5.48-2.34c-1.49-1.56-2.23-3.73-2.23-6.5s.74-4.86,2.23-6.43c1.49-1.56,3.31-2.34,5.48-2.34s3.99,.77,5.48,2.31c1.49,1.54,2.23,3.69,2.23,6.46s-.74,4.88-2.23,6.46Z"/><rect class="cls-1" x="496.34" y="27.84" width="14.81" height="42.4"/><path class="cls-1" d="M503.82,8.64c-2.62,0-4.72,.73-6.31,2.19-1.59,1.46-2.38,3.3-2.38,5.52s.79,3.97,2.38,5.4,3.69,2.15,6.31,2.15,4.65-.72,6.24-2.15,2.38-3.24,2.38-5.4-.79-4.06-2.38-5.52c-1.59-1.46-3.67-2.19-6.24-2.19Z"/><path class="cls-1" d="M547.36,27.46c-2.87,0-5.42,.59-7.64,1.78-2.22,1.19-3.98,2.73-5.29,4.65v-6.05h-14.81v42.4h14.81v-22.75c0-2.42,.63-4.32,1.89-5.71,1.26-1.39,3-2.08,5.22-2.08s3.8,.69,5.06,2.08c1.26,1.39,1.89,3.29,1.89,5.71v22.75h14.81v-24.72c0-5.54-1.44-9.94-4.31-13.19-2.87-3.25-6.75-4.88-11.64-4.88Z"/><path class="cls-1" d="M599.59,33.73c-1.16-1.97-2.81-3.53-4.95-4.69-2.14-1.16-4.65-1.74-7.52-1.74-3.38,0-6.44,.88-9.18,2.65-2.75,1.76-4.91,4.28-6.5,7.56-1.59,3.28-2.38,7.1-2.38,11.49s.79,8.23,2.38,11.53c1.59,3.3,3.75,5.83,6.5,7.6,2.75,1.76,5.81,2.65,9.18,2.65,2.87,0,5.38-.58,7.52-1.74s3.79-2.72,4.95-4.69v5.44c0,5.64-2.52,8.47-7.56,8.47-1.92,0-3.48-.38-4.69-1.13-1.21-.76-1.97-1.81-2.27-3.18h-14.59c.56,5.29,2.8,9.47,6.73,12.55,3.93,3.07,9.17,4.61,15.72,4.61,4.89,0,8.93-.96,12.13-2.87,3.2-1.92,5.56-4.47,7.07-7.67,1.51-3.2,2.27-6.79,2.27-10.77V27.84h-14.82v5.9Zm-2.23,21.77c-1.49,1.56-3.31,2.34-5.48,2.34s-4.06-.79-5.52-2.38c-1.46-1.59-2.19-3.74-2.19-6.46s.73-4.93,2.19-6.46c1.46-1.54,3.3-2.31,5.52-2.31s3.99,.78,5.48,2.34c1.49,1.56,2.23,3.7,2.23,6.43s-.74,4.94-2.23,6.5Z"/><polygon class="cls-1" points="652.12 16.95 637.31 16.95 637.31 70.24 668.68 70.24 668.68 58.9 652.12 58.9 652.12 16.95"/><path class="cls-1" d="M681.9,8.64c-2.62,0-4.73,.73-6.31,2.19-1.59,1.46-2.38,3.3-2.38,5.52s.79,3.97,2.38,5.4c1.59,1.44,3.69,2.15,6.31,2.15s4.65-.72,6.24-2.15c1.59-1.44,2.38-3.24,2.38-5.4s-.79-4.06-2.38-5.52c-1.59-1.46-3.67-2.19-6.24-2.19Z"/><rect class="cls-1" x="674.42" y="27.84" width="14.81" height="42.4"/><path class="cls-1" d="M725.71,46.58c-2.04-.81-4.6-1.54-7.67-2.19-2.57-.55-4.43-1.1-5.59-1.63-1.16-.53-1.74-1.3-1.74-2.31,0-.81,.31-1.44,.94-1.89,.63-.45,1.55-.68,2.76-.68,1.56,0,2.81,.37,3.74,1.1,.93,.73,1.52,1.78,1.78,3.14h13.38c-.51-4.43-2.34-8.01-5.52-10.73s-7.54-4.08-13.08-4.08c-3.73,0-6.92,.6-9.56,1.81s-4.65,2.83-6.01,4.88c-1.36,2.04-2.04,4.32-2.04,6.84,0,2.92,.74,5.24,2.23,6.95,1.49,1.71,3.24,2.95,5.25,3.7,2.01,.76,4.54,1.44,7.56,2.04,2.67,.6,4.59,1.16,5.75,1.66,1.16,.5,1.74,1.29,1.74,2.34,0,.81-.35,1.46-1.06,1.97-.71,.5-1.66,.76-2.87,.76-1.56,0-2.87-.38-3.93-1.13-1.06-.76-1.69-1.81-1.89-3.17h-14.36c.2,2.82,1.17,5.35,2.91,7.6,1.74,2.24,4.11,4.01,7.1,5.29,3,1.29,6.41,1.93,10.24,1.93,3.58,0,6.69-.57,9.34-1.7,2.65-1.13,4.69-2.68,6.12-4.65s2.16-4.18,2.16-6.65c0-3.07-.77-5.51-2.31-7.29-1.54-1.79-3.33-3.09-5.37-3.89Z"/><path class="cls-1" d="M761.35,57.62c-1.26,0-2.15-.25-2.68-.76-.53-.5-.79-1.33-.79-2.49v-14.21h7.71v-12.32h-7.71v-10.28h-14.89v10.28h-5.22v12.32h5.22v13.98c0,10.73,5.42,16.1,16.25,16.1h6.43v-12.62h-4.31Z"/><polygon class="cls-1" points="15.85 17.71 9.07 .18 0 .18 0 27.16 7.5 27.16 7.5 12.16 12.63 27.16 18.91 27.16 24 12.27 24 27.16 31.5 27.16 31.5 .18 22.47 .18 15.85 17.71"/><polygon class="cls-1" points="50.68 5.69 46.32 17.86 41.8 5.69 33.46 5.69 42.26 26.24 37.13 37.38 45.28 37.38 58.91 5.69 50.68 5.69"/><path class="cls-1" d="M84.55,37.62c-1.69,.12-3.75,.24-6.29,.6,5.69-10.28,11.25-20.32,15.24-26.37,1.81-.24,3.02-.48,4.84-.85,5.68-1.09,12.21-2.3,18.26-2.3,2.3,0,3.14-1.09,2.66-2.42C117.69,2.06,114.67-.12,109.1,0c-3.14,0-6.53,.6-10.64,1.21-5.81,.97-12.22,1.69-18.87,1.69-1.81,0-3.14,.73-2.78,2.42,.6,2.3,2.06,4.23,4.84,6.05-10.04,15.6-21.65,37.49-27.09,51.76-1.21,3.39-1.45,4.96-.48,6.53,1.33,2.18,2.18,4.11,3.02,5.32,1.57,2.3,3.51,2.3,6.41,1.45,6.65-1.81,19.59-4.96,26-4.84,2.54,0,2.9-.97,2.3-2.66-1.45-3.99-4.84-5.93-11.37-5.68-3.87,.24-11.49,1.57-16.45,2.9,2.42-5.44,4.96-10.4,8.35-16.81,6.53-1.69,15-3.14,20.92-3.14,2.78,0,3.02-1.21,2.42-2.78-1.33-3.87-4.48-6.05-11.13-5.8Z"/><path class="cls-1" d="M228.34,55.03c-3.87,5.44-10.16,11.61-17.54,16.09,4.96-11.49,11.25-23.22,14.76-29.99,1.57-3.02,2.18-5.68,2.18-8.1,0-2.54-.48-4.35-2.3-6.17-1.33-1.33-2.9-1.09-4.6,1.09-2.9,4.35-6.17,11.73-14.27,25.4-5.93,10.04-11.37,17.17-14.51,17.17s-2.06-4.84-.36-9.19c2.3-5.68,4.84-10.64,8.95-17.17,2.78-4.47,4.23-7.98,4.23-11.01,0-1.93-1.09-4.11-2.3-5.8-1.33-1.94-3.14-1.81-4.72,.24-7.5,10.28-13.43,22.5-16.21,30.12-.53,1.48-.91,2.92-1.17,4.31-1.74,2.17-3.83,4.03-6.32,5.72,1.33-2.66,1.93-6.05,2.06-9.07,.24-6.53-1.33-14.39-1.33-22.98,0-1.57,.12-3.63,.24-5.08,3.75-6.17,3.02-8.83-.24-8.83-1.81,0-3.99,.85-5.93,2.54-2.78,2.3-4.23,5.08-4.72,9.43-3.14,5.2-7.38,11.49-11.37,17.17-.36-2.9-2.18-3.51-4.6-1.45-2.66,2.3-3.87,5.8-3.87,9.43,0,.53,.05,1.07,.1,1.61-3.7,6-8.16,11.09-11.59,11.09-1.21,0-1.69-1.09-1.69-2.9,0-8.1,10.16-21.29,13.3-27.94,3.14-6.29,2.06-11.61,0-14.03-1.45-1.69-3.51-1.57-4.96,.85l-2.3,3.75c-1.09-3.14-3.75-5.32-8.1-5.32-6.17,0-16.09,5.68-25.76,19.59-4.35,6.05-6.53,12.82-6.53,18.02,0,7.14,3.87,12.34,11.01,12.34,4.84,0,10.28-3.75,13.79-7.14,.97,4.47,4.47,7.62,10.52,7.62,5.52,0,11.24-3.59,15.09-8.18,4.21,6.48,11.01,8.16,17.81,7.94,5.78-.23,11.3-2.2,15.75-5.77,1.16,3.12,3.7,5.41,7.96,5.41,3.63,0,6.77-1.09,9.92-3.39l-1.81,4.23c-11.73,4.72-21.53,12.09-25.28,22.5-.73,2.18-1.09,4.23-1.09,5.68,0,3.87,1.81,7.5,3.63,10.04,2.9,3.87,5.44,3.87,8.22,2.78,10.52-3.99,18.75-23.34,25.4-39.31,9.92-4.11,17.9-8.59,22.74-15.97,2.06-3.14,2.3-6.29,1.69-8.22-.48-1.57-2.3-1.33-3.87,.85Zm-118.88,15.6c-1.21,0-1.69-1.45-1.69-3.63,0-3.87,2.06-10.28,5.68-15.96,6.17-9.92,14.51-17.54,16.93-17.54,1.21,0,1.45,.85,1.45,2.3,0,3.14-2.18,9.07-6.89,17.29-5.93,10.16-11.49,17.54-15.48,17.54Zm51.52-.12c-2.66,0-5.2-4.23-6.65-9.92,3.63-5.2,7.01-10.4,9.92-15,.24,3.27,.36,7.14,.36,11.01,0,7.86-1.09,13.91-3.63,13.91Zm24.43,30.96c-3.39,5.93-5.93,9.43-6.77,8.71-1.21-1.09-.36-6.05,2.66-11.73,2.54-4.72,6.65-9.92,12.46-13.91-2.9,6.53-5.81,12.46-8.35,16.93Z"/></g></g></svg>